<?xml version="1.0" encoding="UTF-8"?>
<!DOCTYPE svg PUBLIC "-//W3C//DTD SVG 1.1//EN" "http://www.w3.org/Graphics/SVG/1.1/DTD/svg11.dtd">
<svg xmlns="http://www.w3.org/2000/svg" version="1.1" width="626px" height="450px" style="shape-rendering:geometricPrecision; text-rendering:geometricPrecision; image-rendering:optimizeQuality; fill-rule:evenodd; clip-rule:evenodd" xmlns:xlink="http://www.w3.org/1999/xlink">
<g><path style="opacity:0.885" fill="#060300" d="M 252.5,161.5 C 253.833,161.167 255.167,160.833 256.5,160.5C 256.182,164.794 257.015,168.794 259,172.5C 260.011,171.663 261.178,171.33 262.5,171.5C 262.5,172.5 262.5,173.5 262.5,174.5C 262.5,174.833 262.5,175.167 262.5,175.5C 261.343,183.656 261.177,191.99 262,200.5C 265.078,198.069 268.578,197.069 272.5,197.5C 272.5,196.5 272.5,195.5 272.5,194.5C 277.352,193.886 282.018,192.72 286.5,191C 287.46,187.27 287.793,183.437 287.5,179.5C 287.5,175.5 287.5,171.5 287.5,167.5C 292.107,165.452 296.773,163.285 301.5,161C 303.874,158.961 305.874,156.628 307.5,154C 308.577,153.53 309.577,153.697 310.5,154.5C 312.43,158.1 315.097,161.1 318.5,163.5C 322.33,167.499 325.997,171.665 329.5,176C 332.174,175.847 334.84,175.347 337.5,174.5C 337.201,172.396 337.534,170.396 338.5,168.5C 342.462,171.038 346.796,172.038 351.5,171.5C 351.36,169.876 352.027,168.71 353.5,168C 361.833,165.667 370.167,163.333 378.5,161C 379.434,155.575 380.101,150.075 380.5,144.5C 381.219,142.236 381.552,139.903 381.5,137.5C 372.167,140.167 362.833,142.833 353.5,145.5C 354.254,140.537 354.587,135.537 354.5,130.5C 355.161,129.282 355.828,127.949 356.5,126.5C 364.094,123.865 371.428,120.865 378.5,117.5C 379.487,112.695 379.821,107.695 379.5,102.5C 371.451,104.294 363.451,106.294 355.5,108.5C 356.2,104.202 356.533,99.8689 356.5,95.5C 356.137,93.0885 357.137,91.5885 359.5,91C 367.941,88.2785 376.274,85.2785 384.5,82C 385.635,77.2523 385.802,72.419 385,67.5C 370.527,72.3242 356.027,77.1575 341.5,82C 340.525,87.7412 340.192,93.5746 340.5,99.5C 339.59,101.019 338.757,102.685 338,104.5C 337.501,109.489 337.334,114.489 337.5,119.5C 336.593,125.106 336.26,130.773 336.5,136.5C 336.829,142.206 336.495,147.872 335.5,153.5C 333.481,151.81 331.481,150.144 329.5,148.5C 327.766,145.8 325.432,143.8 322.5,142.5C 321.645,141.469 320.978,140.303 320.5,139C 322.227,134.99 323.227,130.823 323.5,126.5C 324.778,121.802 324.778,117.135 323.5,112.5C 322.502,108.495 320.502,105.161 317.5,102.5C 311.902,96.2474 304.902,94.0808 296.5,96C 282.758,100.692 269.424,106.359 256.5,113C 255.186,115.605 255.186,118.105 256.5,120.5C 257.931,122.401 258.931,124.568 259.5,127C 261.931,127.252 264.265,126.752 266.5,125.5C 267.466,127.396 267.799,129.396 267.5,131.5C 266.539,133.265 266.205,135.265 266.5,137.5C 265.833,143.346 265.167,149.346 264.5,155.5C 261.261,156.704 258.094,158.038 255,159.5C 254.329,158.748 253.496,158.414 252.5,158.5C 255.7,156.369 259.2,154.702 263,153.5C 263.319,145.051 263.985,136.718 265,128.5C 262.699,129.867 260.199,130.534 257.5,130.5C 257.162,128.146 256.662,125.813 256,123.5C 255.107,122.289 254.274,122.289 253.5,123.5C 248.392,140.082 245.559,157.082 245,174.5C 243.901,190.482 243.401,206.482 243.5,222.5C 240.813,222.336 238.146,222.503 235.5,223C 233.797,225.661 231.63,225.828 229,223.5C 225.602,230.118 220.102,232.951 212.5,232C 208.64,234.548 207.14,238.048 208,242.5C 232.137,231.621 256.97,222.621 282.5,215.5C 280.969,216.925 281.302,217.591 283.5,217.5C 276.002,222.417 268.002,226.584 259.5,230C 271.964,226.903 284.297,223.07 296.5,218.5C 297.293,219.355 296.96,220.189 295.5,221C 241.879,244.302 190.879,271.969 142.5,304C 139.96,306.205 137.793,308.705 136,311.5C 133.886,318.445 133.053,325.445 133.5,332.5C 143.5,326.833 153.5,321.167 163.5,315.5C 164.5,315.833 165.167,316.5 165.5,317.5C 163.539,321.258 161.205,324.758 158.5,328C 161.84,326.907 165.173,325.407 168.5,323.5C 169.854,319.566 171.021,315.566 172,311.5C 180.285,304.948 186.118,296.614 189.5,286.5C 190.853,291.066 192.686,295.399 195,299.5C 197.656,292.752 199.156,293.085 199.5,300.5C 202.205,300.38 202.872,301.38 201.5,303.5C 202.815,305.316 204.315,306.983 206,308.5C 217.408,289.768 233.575,276.934 254.5,270C 259.46,268.344 264.46,266.844 269.5,265.5C 269.449,268.063 269.783,270.729 270.5,273.5C 275.948,271.245 280.782,267.912 285,263.5C 285.915,264.328 286.581,265.328 287,266.5C 289.692,263.308 292.192,259.975 294.5,256.5C 296.167,257.833 297.833,259.167 299.5,260.5C 301.483,259.018 303.316,257.351 305,255.5C 305.333,258.5 305.667,261.5 306,264.5C 307.828,266.807 309.494,266.474 311,263.5C 311.497,260.854 311.664,258.187 311.5,255.5C 318.271,256.241 322.437,253.241 324,246.5C 324.956,247.579 325.789,248.745 326.5,250C 327.5,250.667 328.5,250.667 329.5,250C 331.123,247.92 332.623,245.754 334,243.5C 334.807,247.397 336.474,248.063 339,245.5C 339.32,248.54 339.32,251.54 339,254.5C 339.833,253.5 340.667,252.5 341.5,251.5C 342.82,253.27 344.32,253.603 346,252.5C 344.124,276.603 342.957,300.77 342.5,325C 343.084,344.516 343.584,364.016 344,383.5C 341.667,381.167 339.333,378.833 337,376.5C 336.667,378.167 336.333,379.833 336,381.5C 334.315,379.983 332.815,378.316 331.5,376.5C 324.856,373.542 318.189,370.542 311.5,367.5C 310.667,354.5 309.833,341.5 309,328.5C 308.5,346.164 308.333,363.83 308.5,381.5C 306.418,381.528 304.584,380.861 303,379.5C 301.52,383.07 300.187,386.737 299,390.5C 297.148,387.289 295.481,383.956 294,380.5C 293.131,383.33 291.964,385.997 290.5,388.5C 287.627,381.803 284.794,375.803 282,370.5C 279.239,376.08 277.239,375.747 276,369.5C 275.311,370.357 274.478,371.023 273.5,371.5C 272.668,362.852 272.168,354.186 272,345.5C 271.478,360.835 270.978,376.169 270.5,391.5C 268.833,391.5 267.167,391.5 265.5,391.5C 265.719,392.675 265.386,393.675 264.5,394.5C 262.063,393.197 259.896,391.53 258,389.5C 255.679,392.288 252.846,392.955 249.5,391.5C 248.757,392.908 247.923,394.241 247,395.5C 246.667,393.167 246.333,390.833 246,388.5C 244.293,389.138 242.46,389.138 240.5,388.5C 240.5,389.5 240.5,390.5 240.5,391.5C 239.5,391.5 238.5,391.5 237.5,391.5C 237.5,386.167 237.5,380.833 237.5,375.5C 228.366,373.773 219.699,370.607 211.5,366C 207.554,362.613 204.72,358.446 203,353.5C 201.74,376.149 201.24,398.815 201.5,421.5C 199.143,421.663 196.81,421.497 194.5,421C 187.538,419.682 182.205,416.016 178.5,410C 177.216,409.316 176.049,409.483 175,410.5C 172.961,405.96 169.961,404.96 166,407.5C 164.879,399.239 164.379,390.906 164.5,382.5C 164.758,373.14 164.925,363.807 165,354.5C 152.847,360.992 141.513,368.659 131,377.5C 130.761,398.837 130.761,420.171 131,441.5C 129.142,444.412 126.642,445.912 123.5,446C 122.5,445 121.5,444 120.5,443C 109.814,441.938 99.8143,438.771 90.5,433.5C 87.8841,422.354 86.3841,411.02 86,399.5C 84.9025,398.033 83.4025,397.199 81.5,397C 82.731,395.817 82.731,394.651 81.5,393.5C 80.914,393.709 80.414,394.043 80,394.5C 79.5034,392.19 79.3367,389.857 79.5,387.5C 77.4727,387.662 75.4727,387.495 73.5,387C 76.691,378.111 81.5243,370.278 88,363.5C 88.6667,358.833 88.6667,354.167 88,349.5C 77.1936,361.127 66.8603,373.127 57,385.5C 56.6667,383.5 56.3333,381.5 56,379.5C 54.2859,380.925 52.9525,380.592 52,378.5C 50.4263,379.984 49.093,381.651 48,383.5C 47.5034,381.19 47.3367,378.857 47.5,376.5C 45.4884,377.014 43.4884,377.18 41.5,377C 43.1667,374 44.8333,371 46.5,368C 45.1667,367.667 43.8333,367.333 42.5,367C 44.9909,359.527 47.4909,352.027 50,344.5C 55.0781,336.343 59.0781,327.676 62,318.5C 70.4179,309.205 79.5846,300.705 89.5,293C 81.3364,294.951 73.003,296.118 64.5,296.5C 64.5,295.167 64.5,293.833 64.5,292.5C 59.8072,292.564 55.1405,292.231 50.5,291.5C 47.4712,291.044 44.9712,289.71 43,287.5C 39.1696,289.343 36.6696,288.176 35.5,284C 24.3594,280.692 17.0261,273.526 13.5,262.5C 11.0163,260.517 8.68292,258.35 6.5,256C 30.4679,250.839 53.8013,243.505 76.5,234C 89.7583,228.47 100.592,219.97 109,208.5C 111.343,203.398 112.01,198.064 111,192.5C 102.081,186.252 93.7478,179.252 86,171.5C 71.7372,151.253 72.0705,131.253 87,111.5C 101.714,96.4726 118.881,84.9726 138.5,77C 167.697,64.9899 197.697,55.4899 228.5,48.5C 228.335,50.8268 227.669,52.9935 226.5,55C 229.23,55.7284 231.897,55.5617 234.5,54.5C 235.59,55.3914 235.59,56.3914 234.5,57.5C 236.167,57.8333 237.833,58.1667 239.5,58.5C 244.821,57.6369 250.154,57.4703 255.5,58C 256.458,59.1475 256.125,60.1475 254.5,61C 252.122,61.5112 249.788,62.1779 247.5,63C 253.22,63.7876 258.886,63.6209 264.5,62.5C 265.696,62.8457 265.696,63.3457 264.5,64C 235.38,73.0388 207.047,84.0388 179.5,97C 164.977,104.186 152.143,113.686 141,125.5C 134.744,135.419 135.078,145.086 142,154.5C 149.048,160.937 156.548,166.771 164.5,172C 182.151,187.974 186.651,207.141 178,229.5C 175.88,234.242 173.38,238.742 170.5,243C 183.262,245.8 194.595,242.967 204.5,234.5C 203.846,232.885 203.346,231.218 203,229.5C 201.167,231.333 199.333,233.167 197.5,235C 196.551,235.617 195.718,235.451 195,234.5C 194.224,223.798 194.557,213.131 196,202.5C 199.64,181.798 203.474,161.131 207.5,140.5C 207.167,139.5 206.833,138.5 206.5,137.5C 191.007,144.497 175.84,152.163 161,160.5C 160.333,159.833 160.333,159.167 161,158.5C 164.833,154.667 168.667,150.833 172.5,147C 165.464,149.43 158.631,152.597 152,156.5C 151.308,155.975 150.808,155.308 150.5,154.5C 155.599,149.112 160.932,143.946 166.5,139C 163.895,138.974 162.729,137.807 163,135.5C 172.603,128.786 179.436,119.953 183.5,109C 277.018,67.6177 374.351,38.951 475.5,23C 497.732,19.7768 520.065,17.6101 542.5,16.5C 570.05,15.3981 593.55,24.3981 613,43.5C 617.694,52.6213 617.361,61.6213 612,70.5C 603.704,82.4165 592.537,90.5832 578.5,95C 570.57,97.7547 562.57,99.2547 554.5,99.5C 557.673,97.4128 561.006,95.5795 564.5,94C 558.184,94.6269 551.851,95.4602 545.5,96.5C 545.281,95.325 545.614,94.325 546.5,93.5C 548.833,92.3333 551.167,91.1667 553.5,90C 552.377,88.9563 551.044,88.2896 549.5,88C 554.342,85.5497 559.342,83.383 564.5,81.5C 564.94,80.302 565.273,79.1353 565.5,78C 567.871,77.2652 570.205,76.4318 572.5,75.5C 573.004,72.7012 574.004,70.2012 575.5,68C 574.643,67.3109 573.977,66.4776 573.5,65.5C 577.931,62.8676 582.098,59.8676 586,56.5C 593.949,45.8059 591.449,39.6392 578.5,38C 559.866,35.3088 541.2,34.9755 522.5,37C 517.6,37.5221 512.934,38.8554 508.5,41C 505.894,42.9384 504.061,45.4384 503,48.5C 500.475,56.3127 498.809,64.3127 498,72.5C 495.957,93.7835 495.124,115.117 495.5,136.5C 492.8,137.516 490.134,137.516 487.5,136.5C 486.281,137.263 485.281,138.263 484.5,139.5C 483.167,138.5 481.833,137.5 480.5,136.5C 479.594,138.386 478.594,140.22 477.5,142C 473.477,142.145 469.644,142.979 466,144.5C 465.505,142.527 465.338,140.527 465.5,138.5C 462.123,138.959 458.789,139.626 455.5,140.5C 456.397,115.824 457.564,91.1568 459,66.5C 460.496,62.0109 461.996,57.5109 463.5,53C 463.146,50.7356 462.146,48.9022 460.5,47.5C 457.287,48.4269 454.12,49.4269 451,50.5C 450.192,52.5787 450.359,54.5787 451.5,56.5C 453.5,55.8333 455.5,55.1667 457.5,54.5C 457.833,55.1667 458.167,55.8333 458.5,56.5C 457.541,62.1346 456.874,67.8013 456.5,73.5C 446.424,75.5189 436.424,77.8523 426.5,80.5C 426.5,82.1667 426.5,83.8333 426.5,85.5C 432.141,84.3719 437.808,83.3719 443.5,82.5C 443.5,84.8333 443.5,87.1667 443.5,89.5C 446.127,88.9084 448.794,88.5751 451.5,88.5C 450.966,94.905 449.966,101.238 448.5,107.5C 440.661,110.459 432.661,112.792 424.5,114.5C 424.346,117.781 424.346,120.781 424.5,123.5C 431.681,120.883 439.014,118.883 446.5,117.5C 446.007,119.806 445.674,122.139 445.5,124.5C 447.937,124.244 450.271,123.577 452.5,122.5C 452.833,123.833 453.167,125.167 453.5,126.5C 453.184,133.497 452.184,140.33 450.5,147C 432.854,151.328 415.187,155.495 397.5,159.5C 397.5,157.833 397.5,156.167 397.5,154.5C 394.833,154.833 392.167,155.167 389.5,155.5C 389.713,159.516 389.046,163.35 387.5,167C 378.833,169.667 370.167,172.333 361.5,175C 361.957,175.414 362.291,175.914 362.5,176.5C 357.814,177.779 353.147,177.779 348.5,176.5C 346.708,180.235 343.708,182.235 339.5,182.5C 337.444,181.952 335.777,180.786 334.5,179C 332.888,178.28 331.388,178.446 330,179.5C 324.652,174.319 319.485,168.985 314.5,163.5C 309.657,167.672 304.157,170.672 298,172.5C 297.5,180.827 297.334,189.16 297.5,197.5C 294.813,197.336 292.146,197.503 289.5,198C 287.697,200.103 285.364,200.936 282.5,200.5C 282.5,201.833 282.5,203.167 282.5,204.5C 276.704,202.647 272.204,204.314 269,209.5C 268.502,206.518 268.335,203.518 268.5,200.5C 266.692,200.491 265.025,200.991 263.5,202C 262.695,203.972 261.361,205.472 259.5,206.5C 259.401,195.876 259.235,185.209 259,174.5C 257.989,175.337 256.822,175.67 255.5,175.5C 255.6,170.469 254.6,165.803 252.5,161.5 Z M 395.5,65.5 C 396.712,67.2637 396.379,68.9303 394.5,70.5C 392.271,71.5771 389.937,72.2437 387.5,72.5C 387.238,71.0222 387.571,69.6888 388.5,68.5C 391.016,67.6701 393.35,66.6701 395.5,65.5 Z M 335.5,85.5 C 336.5,85.5 337.5,85.5 338.5,85.5C 339.061,91.7316 338.228,97.7316 336,103.5C 335.906,109.278 335.239,114.944 334,120.5C 333.509,115.69 331.842,111.356 329,107.5C 323.949,102.726 318.449,98.5595 312.5,95C 320.193,91.7186 327.859,88.5519 335.5,85.5 Z M 364.5,139.5 C 364.192,137.076 364.526,134.743 365.5,132.5C 372.977,129.398 380.477,126.398 388,123.5C 388.831,117.141 388.664,110.807 387.5,104.5C 385.833,105.167 384.167,105.833 382.5,106.5C 381.682,103.893 381.182,101.226 381,98.5C 376.383,100.32 371.716,101.987 367,103.5C 366.505,101.527 366.338,99.5273 366.5,97.5C 375.17,94.9987 383.67,91.9987 392,88.5C 391.356,105.496 390.356,122.496 389,139.5C 387.416,140.861 385.582,141.528 383.5,141.5C 383.993,139.194 384.326,136.861 384.5,134.5C 377.839,136.164 371.173,137.831 364.5,139.5 Z M 301.5,118.5 C 303.167,118.5 304.833,118.5 306.5,118.5C 305.932,123.637 303.765,127.97 300,131.5C 299.906,127.126 300.406,122.792 301.5,118.5 Z M 333.5,127.5 C 334.886,133.737 334.719,140.071 333,146.5C 331.764,145.601 330.93,144.434 330.5,143C 332.842,138.1 333.842,132.933 333.5,127.5 Z M 274.5,290.5 C 275.268,299.063 274.768,307.73 273,316.5C 271.625,314.063 271.125,311.397 271.5,308.5C 260.063,312.467 248.897,317.133 238,322.5C 239.51,317.948 242.343,314.114 246.5,311C 254.848,305.825 263.515,301.158 272.5,297C 275.044,295.437 275.044,293.937 272.5,292.5C 273.243,291.818 273.909,291.151 274.5,290.5 Z M 167.5,330.5 C 168.043,330.56 168.376,330.893 168.5,331.5C 167.806,335.19 166.972,338.857 166,342.5C 163.716,338.1 164.216,334.1 167.5,330.5 Z M 234.5,338.5 C 235.82,339.942 237.486,340.608 239.5,340.5C 239.5,342.167 239.5,343.833 239.5,345.5C 238.178,345.67 237.011,345.337 236,344.5C 235.187,342.564 234.687,340.564 234.5,338.5 Z"/></g>
<g><path style="opacity:1" fill="#f1c707" d="M 562.5,20.5 C 552.159,24.7512 541.492,27.7512 530.5,29.5C 518.916,28.8742 507.916,31.0408 497.5,36C 496.023,37.8121 494.69,39.6455 493.5,41.5C 484.061,43.8591 474.728,46.5257 465.5,49.5C 464.32,46.4726 462.987,43.4726 461.5,40.5C 484.525,34.1597 507.525,27.6597 530.5,21C 526.514,20.5012 522.514,20.3345 518.5,20.5C 533.03,17.9669 547.697,17.9669 562.5,20.5 Z"/></g>
<g><path style="opacity:1" fill="#f7d905" d="M 518.5,20.5 C 522.514,20.3345 526.514,20.5012 530.5,21C 507.525,27.6597 484.525,34.1597 461.5,40.5C 457.466,40.6721 453.466,41.1721 449.5,42C 405.993,53.4609 362.993,66.6276 320.5,81.5C 274.633,94.0942 228.8,107.094 183,120.5C 182.235,120.43 181.735,120.097 181.5,119.5C 182.264,116.982 183.264,114.649 184.5,112.5C 184.735,113.097 185.235,113.43 186,113.5C 291.811,83.2556 397.644,53.0889 503.5,23C 502.207,22.51 500.873,22.3433 499.5,22.5C 505.617,21.1208 511.95,20.4541 518.5,20.5 Z"/></g>
<g><path style="opacity:1" fill="#f8e303" d="M 499.5,22.5 C 500.873,22.3433 502.207,22.51 503.5,23C 397.644,53.0889 291.811,83.2556 186,113.5C 185.235,113.43 184.735,113.097 184.5,112.5C 187.866,109.3 191.866,106.8 196.5,105C 202.855,102.487 209.188,99.987 215.5,97.5C 215.735,98.0967 216.235,98.4301 217,98.5C 296.811,75.5889 376.644,52.7556 456.5,30C 455.207,29.51 453.873,29.3433 452.5,29.5C 467.864,25.9972 483.53,23.6638 499.5,22.5 Z"/></g>
<g><path style="opacity:1" fill="#f0b30b" d="M 562.5,20.5 C 570.018,21.8792 577.351,23.8792 584.5,26.5C 579.552,29.0761 574.219,30.7427 568.5,31.5C 555.885,29.9872 543.219,29.3205 530.5,29.5C 541.492,27.7512 552.159,24.7512 562.5,20.5 Z"/></g>
<g><path style="opacity:1" fill="#e79410" d="M 584.5,26.5 C 589.791,28.1434 594.458,30.81 598.5,34.5C 595.679,36.7122 592.345,37.7122 588.5,37.5C 581.927,34.8613 575.261,32.8613 568.5,31.5C 574.219,30.7427 579.552,29.0761 584.5,26.5 Z"/></g>
<g><path style="opacity:1" fill="#f1e900" d="M 452.5,29.5 C 453.873,29.3433 455.207,29.51 456.5,30C 376.644,52.7556 296.811,75.5889 217,98.5C 216.235,98.4301 215.735,98.0967 215.5,97.5C 291.956,66.3526 370.956,43.6859 452.5,29.5 Z"/></g>
<g><path style="opacity:1" fill="#f1b00c" d="M 493.5,41.5 C 492.246,45.4346 491.246,49.4346 490.5,53.5C 481.755,56.9374 472.755,59.604 463.5,61.5C 464.793,57.6163 465.459,53.6163 465.5,49.5C 474.728,46.5257 484.061,43.8591 493.5,41.5 Z"/></g>
<g><path style="opacity:1" fill="#fbfa00" d="M 129.5,123.5 C 112.996,128.085 96.4961,132.752 80,137.5C 79.2352,137.43 78.7352,137.097 78.5,136.5C 79.232,130.026 81.3986,124.026 85,118.5C 94.3395,106.162 105.84,96.3287 119.5,89C 153.214,71.4863 188.547,59.3196 225.5,52.5C 224.833,53.8333 224.167,55.1667 223.5,56.5C 225.743,57.4742 228.076,57.8076 230.5,57.5C 230.5,58.5 230.5,59.5 230.5,60.5C 235.511,60.3341 240.511,60.5007 245.5,61C 219.046,69.3738 193.379,79.7071 168.5,92C 156.565,97.94 145.731,105.44 136,114.5C 133.615,117.379 131.448,120.379 129.5,123.5 Z"/></g>
<g><path style="opacity:1" fill="#e56f17" d="M 598.5,34.5 C 605.688,39.8775 608.022,46.8775 605.5,55.5C 598.622,57.7091 591.955,59.3758 585.5,60.5C 590.737,55.6242 592.903,49.6242 592,42.5C 591.003,40.6769 589.836,39.0103 588.5,37.5C 592.345,37.7122 595.679,36.7122 598.5,34.5 Z"/></g>
<g><path style="opacity:1" fill="#ed9611" d="M 490.5,53.5 C 489.093,59.0854 488.093,64.7521 487.5,70.5C 479.047,72.3636 470.714,74.6969 462.5,77.5C 461.513,74.2317 461.18,70.8984 461.5,67.5C 461.259,65.1016 461.926,63.1016 463.5,61.5C 472.755,59.604 481.755,56.9374 490.5,53.5 Z"/></g>
<g><path style="opacity:1" fill="#de4a1d" d="M 605.5,55.5 C 600.103,70.7313 589.77,81.2313 574.5,87C 567.996,89.6261 561.329,91.2927 554.5,92C 556.623,91.1853 558.623,90.1853 560.5,89C 559.328,88.5814 558.328,87.9147 557.5,87C 561.167,85.5 564.833,84 568.5,82.5C 568.94,81.302 569.273,80.1353 569.5,79C 574.573,78.5348 576.573,75.7015 575.5,70.5C 576.978,70.762 578.311,70.4287 579.5,69.5C 578.167,68.3801 577.667,67.0468 578,65.5C 580.443,63.6991 582.943,62.0324 585.5,60.5C 591.955,59.3758 598.622,57.7091 605.5,55.5 Z"/></g>
<g><path style="opacity:1" fill="#f0b50b" d="M 446.5,64.5 C 430.475,68.1313 414.642,72.4646 399,77.5C 398.502,74.5184 398.335,71.5184 398.5,68.5C 398.286,66.8561 398.62,65.3561 399.5,64C 415.774,59.5181 432.108,55.3514 448.5,51.5C 447.914,55.8544 447.248,60.1878 446.5,64.5 Z"/></g>
<g><path style="opacity:1" fill="#edb40b" d="M 356.5,95.5 C 351.167,96.8333 345.833,98.1667 340.5,99.5C 340.192,93.5746 340.525,87.7412 341.5,82C 356.027,77.1575 370.527,72.3242 385,67.5C 385.802,72.419 385.635,77.2523 384.5,82C 376.274,85.2785 367.941,88.2785 359.5,91C 357.137,91.5885 356.137,93.0885 356.5,95.5 Z"/></g>
<g><path style="opacity:1" fill="#ec9c0f" d="M 446.5,64.5 C 446.586,65.4959 446.252,66.3292 445.5,67C 435.948,69.9438 426.281,72.4438 416.5,74.5C 416.5,78.5 416.5,82.5 416.5,86.5C 415.694,87.9972 415.028,89.6639 414.5,91.5C 408.219,93.6537 401.886,95.6537 395.5,97.5C 394.893,97.3764 394.56,97.0431 394.5,96.5C 395.68,87.0254 397.014,77.692 398.5,68.5C 398.335,71.5184 398.502,74.5184 399,77.5C 414.642,72.4646 430.475,68.1313 446.5,64.5 Z"/></g>
<g><path style="opacity:1" fill="#ea7916" d="M 461.5,67.5 C 461.18,70.8984 461.513,74.2317 462.5,77.5C 470.714,74.6969 479.047,72.3636 487.5,70.5C 487.073,74.8244 486.739,79.1578 486.5,83.5C 478.047,85.3636 469.714,87.6969 461.5,90.5C 460.534,88.604 460.201,86.604 460.5,84.5C 460.178,78.642 460.511,72.9753 461.5,67.5 Z"/></g>
<g><path style="opacity:1" fill="#e67e14" d="M 440.5,90.5 C 424.668,94.7067 409.002,99.3733 393.5,104.5C 393.194,101.615 393.527,98.9479 394.5,96.5C 394.56,97.0431 394.893,97.3764 395.5,97.5C 401.886,95.6537 408.219,93.6537 414.5,91.5C 415.028,89.6639 415.694,87.9972 416.5,86.5C 416.343,87.8734 416.51,89.2068 417,90.5C 424.691,88.2615 432.525,86.5948 440.5,85.5C 440.5,87.1667 440.5,88.8333 440.5,90.5 Z"/></g>
<g><path style="opacity:1" fill="#e86f18" d="M 440.5,90.5 C 439.741,94.4767 439.075,98.4767 438.5,102.5C 430.771,104.353 423.104,106.52 415.5,109C 414.663,110.011 414.33,111.178 414.5,112.5C 407.632,114.9 400.632,116.9 393.5,118.5C 393.5,117.167 393.5,115.833 393.5,114.5C 393.5,111.167 393.5,107.833 393.5,104.5C 409.002,99.3733 424.668,94.7067 440.5,90.5 Z"/></g>
<g><path style="opacity:1" fill="#e35b1b" d="M 486.5,83.5 C 486.663,88.547 486.329,93.547 485.5,98.5C 476.833,100.834 468.166,103.167 459.5,105.5C 459.175,98.3134 459.509,91.3134 460.5,84.5C 460.201,86.604 460.534,88.604 461.5,90.5C 469.714,87.6969 478.047,85.3636 486.5,83.5 Z"/></g>
<g><path style="opacity:1" fill="#f4ca07" d="M 320.5,81.5 C 299.89,89.4648 279.223,97.4648 258.5,105.5C 231.241,112.774 204.074,120.44 177,128.5C 176.235,128.43 175.735,128.097 175.5,127.5C 177.512,124.795 179.512,122.128 181.5,119.5C 181.735,120.097 182.235,120.43 183,120.5C 228.8,107.094 274.633,94.0942 320.5,81.5 Z"/></g>
<g><path style="opacity:1" fill="#ec9b10" d="M 317.5,102.5 C 320.502,105.161 322.502,108.495 323.5,112.5C 322.85,112.196 322.183,111.863 321.5,111.5C 317.535,112.766 313.535,113.933 309.5,115C 308.944,115.383 308.611,115.883 308.5,116.5C 306.99,115.164 305.323,113.997 303.5,113C 299.514,112.501 295.514,112.334 291.5,112.5C 290.833,117.167 290.167,121.833 289.5,126.5C 282.724,128.57 275.891,130.57 269,132.5C 268.235,132.43 267.735,132.097 267.5,131.5C 267.799,129.396 267.466,127.396 266.5,125.5C 264.265,126.752 261.931,127.252 259.5,127C 258.931,124.568 257.931,122.401 256.5,120.5C 277.301,115.556 297.634,109.556 317.5,102.5 Z"/></g>
<g><path style="opacity:1" fill="#e78314" d="M 356.5,95.5 C 356.533,99.8689 356.2,104.202 355.5,108.5C 363.451,106.294 371.451,104.294 379.5,102.5C 379.821,107.695 379.487,112.695 378.5,117.5C 378.5,114.5 378.5,111.5 378.5,108.5C 364.79,112.011 351.123,115.678 337.5,119.5C 337.334,114.489 337.501,109.489 338,104.5C 338.757,102.685 339.59,101.019 340.5,99.5C 345.833,98.1667 351.167,96.8333 356.5,95.5 Z"/></g>
<g><path style="opacity:1" fill="#f3c109" d="M 258.5,105.5 C 253.091,107.864 248.424,111.198 244.5,115.5C 221.173,121.831 197.839,128.164 174.5,134.5C 172.181,135.167 169.847,135.334 167.5,135C 170.692,132.972 173.359,130.472 175.5,127.5C 175.735,128.097 176.235,128.43 177,128.5C 204.074,120.44 231.241,112.774 258.5,105.5 Z"/></g>
<g><path style="opacity:1" fill="#e23f20" d="M 485.5,98.5 C 485.5,104.167 485.5,109.833 485.5,115.5C 476.956,118.236 468.289,120.569 459.5,122.5C 459.5,117.5 459.5,112.5 459.5,107.5C 459.5,106.833 459.5,106.167 459.5,105.5C 468.166,103.167 476.833,100.834 485.5,98.5 Z"/></g>
<g><path style="opacity:1" fill="#e66e17" d="M 378.5,117.5 C 371.428,120.865 364.094,123.865 356.5,126.5C 355.828,127.949 355.161,129.282 354.5,130.5C 354.5,129.5 354.5,128.5 354.5,127.5C 348.868,128.991 343.201,130.325 337.5,131.5C 337.784,133.415 337.451,135.081 336.5,136.5C 336.26,130.773 336.593,125.106 337.5,119.5C 351.123,115.678 364.79,112.011 378.5,108.5C 378.5,111.5 378.5,114.5 378.5,117.5 Z"/></g>
<g><path style="opacity:1" fill="#f1b10c" d="M 317.5,102.5 C 297.634,109.556 277.301,115.556 256.5,120.5C 255.186,118.105 255.186,115.605 256.5,113C 269.424,106.359 282.758,100.692 296.5,96C 304.902,94.0808 311.902,96.2474 317.5,102.5 Z"/></g>
<g><path style="opacity:0.939" fill="#060300" d="M 308.5,116.5 C 308.622,122.134 306.955,127.134 303.5,131.5C 299.567,135.805 294.901,139.139 289.5,141.5C 288.526,139.257 288.192,136.924 288.5,134.5C 288.833,131.833 289.167,129.167 289.5,126.5C 290.167,121.833 290.833,117.167 291.5,112.5C 295.514,112.334 299.514,112.501 303.5,113C 305.323,113.997 306.99,115.164 308.5,116.5 Z M 301.5,118.5 C 300.406,122.792 299.906,127.126 300,131.5C 303.765,127.97 305.932,123.637 306.5,118.5C 304.833,118.5 303.167,118.5 301.5,118.5 Z"/></g>
<g><path style="opacity:1" fill="#eeae0c" d="M 244.5,115.5 C 242.614,119.837 240.947,124.17 239.5,128.5C 229.963,131.567 220.297,134.233 210.5,136.5C 211.847,130.301 209.513,127.801 203.5,129C 188.452,135.197 173.786,141.863 159.5,149C 164.959,144.611 169.959,139.778 174.5,134.5C 197.839,128.164 221.173,121.831 244.5,115.5 Z"/></g>
<g><path style="opacity:1" fill="#e24d1d" d="M 414.5,112.5 C 414.384,115.86 414.051,119.193 413.5,122.5C 412.784,124.556 412.117,126.723 411.5,129C 405.464,130.734 399.464,132.568 393.5,134.5C 392.516,131.572 392.183,128.572 392.5,125.5C 392.185,121.629 392.518,117.962 393.5,114.5C 393.5,115.833 393.5,117.167 393.5,118.5C 400.632,116.9 407.632,114.9 414.5,112.5 Z"/></g>
<g><path style="opacity:1" fill="#e47d14" d="M 323.5,112.5 C 324.778,117.135 324.778,121.802 323.5,126.5C 316.622,128.709 309.955,130.376 303.5,131.5C 306.955,127.134 308.622,122.134 308.5,116.5C 308.611,115.883 308.944,115.383 309.5,115C 313.535,113.933 317.535,112.766 321.5,111.5C 322.183,111.863 322.85,112.196 323.5,112.5 Z"/></g>
<g><path style="opacity:1" fill="#d71e25" d="M 459.5,107.5 C 459.5,112.5 459.5,117.5 459.5,122.5C 468.289,120.569 476.956,118.236 485.5,115.5C 485.5,120.833 485.5,126.167 485.5,131.5C 482.843,131.838 480.51,131.171 478.5,129.5C 477.281,130.263 476.281,131.263 475.5,132.5C 470.66,128.271 468.327,129.605 468.5,136.5C 465.091,136.249 461.758,136.583 458.5,137.5C 458.167,136.167 457.833,134.833 457.5,133.5C 458.048,124.671 458.715,116.004 459.5,107.5 Z"/></g>
<g><path style="opacity:1" fill="#db2923" d="M 392.5,125.5 C 392.183,128.572 392.516,131.572 393.5,134.5C 399.464,132.568 405.464,130.734 411.5,129C 412.117,126.723 412.784,124.556 413.5,122.5C 413.201,124.604 413.534,126.604 414.5,128.5C 424.049,125.428 433.716,122.762 443.5,120.5C 443.34,127.43 442.673,134.263 441.5,141C 424.795,145.061 408.129,149.228 391.5,153.5C 390.517,143.994 390.85,134.661 392.5,125.5 Z"/></g>
<g><path style="opacity:1" fill="#f7dc05" d="M 129.5,123.5 C 127.119,127.481 126.119,131.814 126.5,136.5C 110.58,141.146 94.5804,145.48 78.5,149.5C 77.3376,145.02 77.3376,140.687 78.5,136.5C 78.7352,137.097 79.2352,137.43 80,137.5C 96.4961,132.752 112.996,128.085 129.5,123.5 Z"/></g>
<g><path style="opacity:1" fill="#ea7916" d="M 289.5,126.5 C 289.167,129.167 288.833,131.833 288.5,134.5C 287.539,136.265 287.205,138.265 287.5,140.5C 280.465,142.009 273.465,143.675 266.5,145.5C 266.5,142.833 266.5,140.167 266.5,137.5C 266.205,135.265 266.539,133.265 267.5,131.5C 267.735,132.097 268.235,132.43 269,132.5C 275.891,130.57 282.724,128.57 289.5,126.5 Z"/></g>
<g><path style="opacity:1" fill="#ed9112" d="M 239.5,128.5 C 239.348,132.924 238.681,137.257 237.5,141.5C 228.467,144.009 219.467,146.675 210.5,149.5C 209.548,147.955 209.215,146.288 209.5,144.5C 209.401,141.763 209.735,139.096 210.5,136.5C 220.297,134.233 229.963,131.567 239.5,128.5 Z"/></g>
<g><path style="opacity:1" fill="#e25e1a" d="M 323.5,126.5 C 323.227,130.823 322.227,134.99 320.5,139C 320.978,140.303 321.645,141.469 322.5,142.5C 300.551,148.705 278.551,154.705 256.5,160.5C 255.167,160.833 253.833,161.167 252.5,161.5C 249.902,160.472 249.902,159.472 252.5,158.5C 253.496,158.414 254.329,158.748 255,159.5C 258.094,158.038 261.261,156.704 264.5,155.5C 265.167,149.346 265.833,143.346 266.5,137.5C 266.5,140.167 266.5,142.833 266.5,145.5C 273.465,143.675 280.465,142.009 287.5,140.5C 287.205,138.265 287.539,136.265 288.5,134.5C 288.192,136.924 288.526,139.257 289.5,141.5C 294.901,139.139 299.567,135.805 303.5,131.5C 309.955,130.376 316.622,128.709 323.5,126.5 Z"/></g>
<g><path style="opacity:1" fill="#df3c20" d="M 354.5,130.5 C 354.587,135.537 354.254,140.537 353.5,145.5C 362.833,142.833 372.167,140.167 381.5,137.5C 381.552,139.903 381.219,142.236 380.5,144.5C 360.808,149.84 341.141,155.34 321.5,161C 319.881,161.236 318.881,162.069 318.5,163.5C 315.097,161.1 312.43,158.1 310.5,154.5C 317.074,152.946 323.408,150.946 329.5,148.5C 331.481,150.144 333.481,151.81 335.5,153.5C 336.495,147.872 336.829,142.206 336.5,136.5C 337.451,135.081 337.784,133.415 337.5,131.5C 343.201,130.325 348.868,128.991 354.5,127.5C 354.5,128.5 354.5,129.5 354.5,130.5 Z"/></g>
<g><path style="opacity:1" fill="#e34a1e" d="M 322.5,142.5 C 325.432,143.8 327.766,145.8 329.5,148.5C 323.408,150.946 317.074,152.946 310.5,154.5C 309.577,153.697 308.577,153.53 307.5,154C 305.874,156.628 303.874,158.961 301.5,161C 296.773,163.285 292.107,165.452 287.5,167.5C 279.094,169.636 270.761,171.97 262.5,174.5C 262.5,173.5 262.5,172.5 262.5,171.5C 261.178,171.33 260.011,171.663 259,172.5C 257.015,168.794 256.182,164.794 256.5,160.5C 278.551,154.705 300.551,148.705 322.5,142.5 Z"/></g>
<g><path style="opacity:1" fill="#f4c309" d="M 126.5,136.5 C 127.2,140.237 128.2,143.904 129.5,147.5C 113.833,152.167 98.1667,156.833 82.5,161.5C 80.8606,157.612 79.5273,153.612 78.5,149.5C 94.5804,145.48 110.58,141.146 126.5,136.5 Z"/></g>
<g><path style="opacity:1" fill="#dd2425" d="M 380.5,144.5 C 380.101,150.075 379.434,155.575 378.5,161C 370.167,163.333 361.833,165.667 353.5,168C 352.027,168.71 351.36,169.876 351.5,171.5C 346.796,172.038 342.462,171.038 338.5,168.5C 337.534,170.396 337.201,172.396 337.5,174.5C 334.84,175.347 332.174,175.847 329.5,176C 325.997,171.665 322.33,167.499 318.5,163.5C 318.881,162.069 319.881,161.236 321.5,161C 341.141,155.34 360.808,149.84 380.5,144.5 Z"/></g>
<g><path style="opacity:1" fill="#e87816" d="M 237.5,141.5 C 237.448,145.198 237.114,148.865 236.5,152.5C 235.596,153.209 235.263,154.209 235.5,155.5C 226.397,157.359 217.397,159.693 208.5,162.5C 207.287,162.253 206.62,161.586 206.5,160.5C 207.011,154.951 208.011,149.617 209.5,144.5C 209.215,146.288 209.548,147.955 210.5,149.5C 219.467,146.675 228.467,144.009 237.5,141.5 Z"/></g>
<g><path style="opacity:0.882" fill="#060300" d="M 428.5,367.5 C 428.5,366.833 428.833,366.5 429.5,366.5C 430.167,365.833 430.833,365.167 431.5,364.5C 441.747,359.64 452.414,355.973 463.5,353.5C 463.343,354.873 463.51,356.207 464,357.5C 466.172,356.415 468.172,355.081 470,353.5C 476.566,335.581 480.733,317.248 482.5,298.5C 490.869,295.816 498.536,291.816 505.5,286.5C 506.852,287.524 508.185,288.524 509.5,289.5C 523.107,305.945 535.773,323.111 547.5,341C 550.167,341.667 552.833,341.667 555.5,341C 556.861,339.416 557.528,337.582 557.5,335.5C 560.898,335.82 564.232,335.487 567.5,334.5C 568,333.5 568.5,332.5 569,331.5C 571.727,334.731 574.894,337.397 578.5,339.5C 580.226,336.773 582.559,334.773 585.5,333.5C 569.148,315.816 552.482,298.483 535.5,281.5C 534.488,280.128 533.488,278.795 532.5,277.5C 530.167,274.5 527.5,271.833 524.5,269.5C 528.183,266.815 531.183,263.482 533.5,259.5C 535.588,257.664 536.921,255.331 537.5,252.5C 539.279,249.085 540.613,245.419 541.5,241.5C 542.636,236.015 542.636,230.681 541.5,225.5C 541.784,223.585 541.451,221.919 540.5,220.5C 540.741,218.102 540.074,216.102 538.5,214.5C 531.044,195.239 516.877,185.573 496,185.5C 471.43,188.18 447.596,193.846 424.5,202.5C 428.424,204.68 430.591,208.014 431,212.5C 432.558,214.359 434.391,215.859 436.5,217C 441.393,216.098 446.393,215.598 451.5,215.5C 451.5,221.5 451.5,227.5 451.5,233.5C 451.5,241.167 451.5,248.833 451.5,256.5C 451.5,259.167 451.5,261.833 451.5,264.5C 451.5,265.5 451.5,266.5 451.5,267.5C 450.523,270.287 450.19,273.287 450.5,276.5C 449.517,280.298 449.183,284.298 449.5,288.5C 448.814,289.848 447.814,291.015 446.5,292C 441.095,292.808 435.928,294.308 431,296.5C 430.329,295.748 429.496,295.414 428.5,295.5C 428.62,294.414 429.287,293.747 430.5,293.5C 435.464,292.176 440.464,291.009 445.5,290C 446.191,288.933 446.691,287.766 447,286.5C 449.184,265.881 449.851,245.215 449,224.5C 443.092,221.178 436.926,218.344 430.5,216C 428.965,213.376 427.798,210.543 427,207.5C 424.197,205.181 421.03,203.515 417.5,202.5C 409.19,205.071 401.69,209.071 395,214.5C 392.565,219.236 390.899,224.236 390,229.5C 385.099,263.648 382.599,297.981 382.5,332.5C 382.975,345.353 383.642,358.186 384.5,371C 384.32,373.241 383.487,373.741 382,372.5C 381.911,376.028 381.244,379.362 380,382.5C 378.194,378.082 376.194,373.749 374,369.5C 373.503,372.146 373.336,374.813 373.5,377.5C 372.178,377.67 371.011,377.337 370,376.5C 367.754,371.674 365.254,367.008 362.5,362.5C 361.52,363.981 360.353,365.315 359,366.5C 356.079,361.659 353.412,356.659 351,351.5C 350.092,353.439 348.592,354.439 346.5,354.5C 345.723,344.853 345.056,335.187 344.5,325.5C 345.93,294.433 348.264,263.433 351.5,232.5C 351.167,229.833 350.833,227.167 350.5,224.5C 333.857,228.771 318.024,235.104 303,243.5C 302.5,243.167 302,242.833 301.5,242.5C 303.485,240.07 304.651,237.404 305,234.5C 300.753,236.707 296.586,239.04 292.5,241.5C 294.286,233.926 297.786,226.926 303,220.5C 311.003,214.491 319.836,209.991 329.5,207C 388.051,185.428 447.717,167.594 508.5,153.5C 509.287,154.242 509.953,155.075 510.5,156C 508.167,157 505.833,158 503.5,159C 501.671,160.113 500.837,161.613 501,163.5C 506.65,161.295 512.484,160.128 518.5,160C 512.859,161.145 508.859,164.312 506.5,169.5C 500.249,171.453 495.916,175.453 493.5,181.5C 492.271,182.281 490.938,182.781 489.5,183C 499.093,182.716 508.427,184.049 517.5,187C 550.428,203.847 559.594,229.347 545,263.5C 542.203,267.299 539.036,270.799 535.5,274C 556.5,296.333 577.5,318.667 598.5,341C 596.432,341.687 594.432,341.52 592.5,340.5C 590.851,342.65 589.018,344.65 587,346.5C 585.104,344.47 582.937,342.803 580.5,341.5C 576.288,341.724 571.954,341.724 567.5,341.5C 567.167,343.5 566.833,345.5 566.5,347.5C 562.894,347.211 559.394,347.544 556,348.5C 555.022,346.525 553.689,344.858 552,343.5C 550.211,344.409 548.377,344.576 546.5,344C 535.597,327.031 523.597,310.864 510.5,295.5C 504.107,299.027 497.773,302.527 491.5,306C 490.349,324.088 486.516,341.588 480,358.5C 477.43,360.869 474.596,362.869 471.5,364.5C 470.702,362.922 470.202,361.256 470,359.5C 459.199,362.879 448.699,367.045 438.5,372C 435.518,372.498 432.518,372.665 429.5,372.5C 429.297,370.61 429.963,369.11 431.5,368C 430.231,368.109 429.231,367.942 428.5,367.5 Z M 490.5,213.5 C 502.478,211.631 509.144,216.798 510.5,229C 509.165,241.847 503.332,252.013 493,259.5C 492.289,244.154 491.455,228.821 490.5,213.5 Z M 437.5,310.5 C 438.289,310.783 438.956,311.283 439.5,312C 438.751,313.734 438.251,315.567 438,317.5C 437.503,315.19 437.337,312.857 437.5,310.5 Z M 437.5,318.5 C 438.978,318.238 440.311,318.571 441.5,319.5C 440.234,323.465 439.067,327.465 438,331.5C 437.501,327.179 437.334,322.846 437.5,318.5 Z"/></g>
<g><path style="opacity:1" fill="#f3b40c" d="M 129.5,147.5 C 131.063,148.945 132.396,150.611 133.5,152.5C 117.771,157.739 101.771,162.406 85.5,166.5C 84.7515,164.668 83.7515,163.001 82.5,161.5C 98.1667,156.833 113.833,152.167 129.5,147.5 Z"/></g>
<g><path style="opacity:1" fill="#ef9e10" d="M 133.5,152.5 C 137.39,155.271 141.057,158.271 144.5,161.5C 128.307,166.673 111.973,171.673 95.5,176.5C 91.8333,173.5 88.5,170.167 85.5,166.5C 101.771,162.406 117.771,157.739 133.5,152.5 Z"/></g>
<g><path style="opacity:1" fill="#f8f800" d="M 375.5,257.5 C 367.5,259.167 359.5,260.833 351.5,262.5C 351.5,262.167 351.5,261.833 351.5,261.5C 352.876,248.195 353.376,234.862 353,221.5C 350.441,219.313 347.441,218.313 344,218.5C 327.502,222.246 311.835,228.246 297,236.5C 299.086,229.704 302.919,223.871 308.5,219C 318.253,214.083 328.253,209.75 338.5,206C 390.628,187.235 443.628,171.402 497.5,158.5C 498.167,158.833 498.833,159.167 499.5,159.5C 497.217,163.488 493.884,166.321 489.5,168C 487.257,170.488 485.257,173.154 483.5,176C 456.629,181.633 430.296,188.966 404.5,198C 397.126,200.434 390.626,204.267 385,209.5C 383.803,212.089 382.803,214.756 382,217.5C 379.07,230.745 376.903,244.079 375.5,257.5 Z"/></g>
<g><path style="opacity:1" fill="#e55f1a" d="M 236.5,152.5 C 235.915,157.515 235.248,162.515 234.5,167.5C 223.956,170.706 213.623,173.373 203.5,175.5C 203.882,170.256 204.882,165.256 206.5,160.5C 206.62,161.586 207.287,162.253 208.5,162.5C 217.397,159.693 226.397,157.359 235.5,155.5C 235.263,154.209 235.596,153.209 236.5,152.5 Z"/></g>
<g><path style="opacity:1" fill="#eb8514" d="M 144.5,161.5 C 148.896,164.025 152.896,167.025 156.5,170.5C 140.454,176.068 124.121,181.068 107.5,185.5C 102.929,183.262 98.9289,180.262 95.5,176.5C 111.973,171.673 128.307,166.673 144.5,161.5 Z"/></g>
<g><path style="opacity:1" fill="#e2471f" d="M 234.5,167.5 C 234.818,172.032 234.485,176.366 233.5,180.5C 223.439,182.849 213.439,185.516 203.5,188.5C 202.584,188.457 201.917,188.124 201.5,187.5C 201.344,183.236 202.011,179.236 203.5,175.5C 213.623,173.373 223.956,170.706 234.5,167.5 Z"/></g>
<g><path style="opacity:1" fill="#e86c18" d="M 156.5,170.5 C 160.212,173.211 163.212,176.544 165.5,180.5C 148.736,185.945 131.736,190.945 114.5,195.5C 114.392,193.217 113.559,191.217 112,189.5C 110.008,188.672 108.508,187.339 107.5,185.5C 124.121,181.068 140.454,176.068 156.5,170.5 Z"/></g>
<g><path style="opacity:1" fill="#de2724" d="M 287.5,167.5 C 287.5,171.5 287.5,175.5 287.5,179.5C 286.897,181.19 285.897,182.69 284.5,184C 277.19,185.785 270.023,187.951 263,190.5C 262.501,185.511 262.334,180.511 262.5,175.5C 262.5,175.167 262.5,174.833 262.5,174.5C 270.761,171.97 279.094,169.636 287.5,167.5 Z"/></g>
<g><path style="opacity:1" fill="#cd1325" d="M 262.5,175.5 C 262.334,180.511 262.501,185.511 263,190.5C 270.023,187.951 277.19,185.785 284.5,184C 285.897,182.69 286.897,181.19 287.5,179.5C 287.793,183.437 287.46,187.27 286.5,191C 282.018,192.72 277.352,193.886 272.5,194.5C 272.5,195.5 272.5,196.5 272.5,197.5C 268.578,197.069 265.078,198.069 262,200.5C 261.177,191.99 261.343,183.656 262.5,175.5 Z"/></g>
<g><path style="opacity:1" fill="#faf900" d="M 538.5,214.5 C 529.231,216.817 519.897,218.817 510.5,220.5C 508.344,214.846 504.344,211.012 498.5,209C 492.912,207.711 487.245,207.211 481.5,207.5C 481.5,213.833 481.5,220.167 481.5,226.5C 481.5,227.167 481.5,227.833 481.5,228.5C 471.874,230.99 462.208,233.323 452.5,235.5C 452.672,234.508 452.338,233.842 451.5,233.5C 451.5,227.5 451.5,221.5 451.5,215.5C 446.393,215.598 441.393,216.098 436.5,217C 434.391,215.859 432.558,214.359 431,212.5C 430.591,208.014 428.424,204.68 424.5,202.5C 447.596,193.846 471.43,188.18 496,185.5C 516.877,185.573 531.044,195.239 538.5,214.5 Z"/></g>
<g><path style="opacity:1" fill="#e4521d" d="M 165.5,180.5 C 168.455,184.679 170.455,189.346 171.5,194.5C 151.069,199.421 130.735,204.754 110.5,210.5C 113.297,205.901 114.631,200.901 114.5,195.5C 131.736,190.945 148.736,185.945 165.5,180.5 Z"/></g>
<g><path style="opacity:1" fill="#da1d26" d="M 233.5,180.5 C 233.5,192.5 233.5,204.5 233.5,216.5C 229.904,216.153 226.571,216.82 223.5,218.5C 222.446,218.32 221.446,217.987 220.5,217.5C 216.796,224.019 211.13,226.852 203.5,226C 201.65,228.018 199.65,229.851 197.5,231.5C 195.753,216.434 197.087,201.768 201.5,187.5C 201.917,188.124 202.584,188.457 203.5,188.5C 213.439,185.516 223.439,182.849 233.5,180.5 Z"/></g>
<g><path style="opacity:1" fill="#e13821" d="M 171.5,194.5 C 171.5,195.167 171.5,195.833 171.5,196.5C 172.011,200.03 171.344,203.196 169.5,206C 145.074,213.351 120.741,219.851 96.5,225.5C 101.844,221.155 106.511,216.155 110.5,210.5C 130.735,204.754 151.069,199.421 171.5,194.5 Z"/></g>
<g><path style="opacity:0.909" fill="#030200" d="M 510.5,220.5 C 512.051,222.913 512.717,225.579 512.5,228.5C 512.037,231.482 511.704,234.482 511.5,237.5C 509.853,241.424 508.186,245.424 506.5,249.5C 502.528,253.807 498.528,258.141 494.5,262.5C 491.726,263.723 489.059,265.223 486.5,267C 485.251,267.74 484.251,267.573 483.5,266.5C 483.825,258.981 483.492,251.648 482.5,244.5C 482.823,238.31 482.49,232.31 481.5,226.5C 481.5,220.167 481.5,213.833 481.5,207.5C 487.245,207.211 492.912,207.711 498.5,209C 504.344,211.012 508.344,214.846 510.5,220.5 Z M 490.5,213.5 C 491.455,228.821 492.289,244.154 493,259.5C 503.332,252.013 509.165,241.847 510.5,229C 509.144,216.798 502.478,211.631 490.5,213.5 Z"/></g>
<g><path style="opacity:0.35" fill="#e2191d" d="M 283.5,217.5 C 281.302,217.591 280.969,216.925 282.5,215.5C 291.103,214.045 291.437,214.712 283.5,217.5 Z"/></g>
<g><path style="opacity:1" fill="#db1528" d="M 171.5,196.5 C 173.313,218.181 165.646,236.014 148.5,250C 121.587,271.122 91.2535,284.622 57.5,290.5C 57.2436,288.208 57.5769,286.041 58.5,284C 52.8175,283.968 47.1508,284.468 41.5,285.5C 40.5581,285.392 39.7247,285.059 39,284.5C 38.2935,282.919 37.4601,281.419 36.5,280C 32.7897,279.105 29.123,278.105 25.5,277C 20.6256,272.811 17.4589,267.644 16,261.5C 14.5,260 13,258.5 11.5,257C 33.4121,252.189 54.7455,245.522 75.5,237C 82.8478,233.662 89.8478,229.829 96.5,225.5C 120.741,219.851 145.074,213.351 169.5,206C 171.344,203.196 172.011,200.03 171.5,196.5 Z"/></g>
<g><path style="opacity:0.874" fill="#080300" d="M 428.5,297.5 C 431.056,298.702 433.389,300.369 435.5,302.5C 436.443,305.109 438.11,307.109 440.5,308.5C 441.369,310.717 441.702,313.05 441.5,315.5C 442.5,315.5 443.5,315.5 444.5,315.5C 441.591,328.321 437.258,340.654 431.5,352.5C 430.391,352.557 429.391,352.89 428.5,353.5C 430.693,348.28 433.026,343.114 435.5,338C 423.078,341.4 410.578,344.9 398,348.5C 397.167,348.167 396.333,347.833 395.5,347.5C 396.246,346.264 396.579,344.93 396.5,343.5C 393.123,343.959 389.789,344.626 386.5,345.5C 387.316,309.155 388.483,272.822 390,236.5C 406.448,231.407 422.948,226.407 439.5,221.5C 439.988,224.437 439.321,227.271 437.5,230C 440.551,229.71 443.551,228.877 446.5,227.5C 446.405,233.299 444.739,238.799 441.5,244C 442.579,244.956 443.745,245.789 445,246.5C 445.667,247.167 445.667,247.833 445,248.5C 443.471,249.729 442.304,251.229 441.5,253C 434.191,255.27 426.858,257.437 419.5,259.5C 418.534,261.396 418.201,263.396 418.5,265.5C 422.71,264.739 426.877,263.739 431,262.5C 431.5,262.833 432,263.167 432.5,263.5C 431.296,265.903 430.962,268.236 431.5,270.5C 434.096,269.518 436.762,268.851 439.5,268.5C 437.211,275.658 435.877,282.991 435.5,290.5C 429.62,292.571 423.62,294.237 417.5,295.5C 417.336,298.187 417.503,300.854 418,303.5C 421.745,302.512 425.578,301.845 429.5,301.5C 429.5,303.833 429.5,306.167 429.5,308.5C 431.75,308.819 433.75,308.319 435.5,307C 432.924,303.937 430.591,300.771 428.5,297.5 Z M 437.5,310.5 C 437.337,312.857 437.503,315.19 438,317.5C 438.251,315.567 438.751,313.734 439.5,312C 438.956,311.283 438.289,310.783 437.5,310.5 Z M 437.5,318.5 C 437.334,322.846 437.501,327.179 438,331.5C 439.067,327.465 440.234,323.465 441.5,319.5C 440.311,318.571 438.978,318.238 437.5,318.5 Z"/></g>
<g><path style="opacity:1" fill="#f8dc05" d="M 538.5,214.5 C 540.074,216.102 540.741,218.102 540.5,220.5C 540.5,221.5 540.5,222.5 540.5,223.5C 532.144,225.339 523.811,227.339 515.5,229.5C 514.416,229.315 513.416,228.982 512.5,228.5C 512.717,225.579 512.051,222.913 510.5,220.5C 519.897,218.817 529.231,216.817 538.5,214.5 Z"/></g>
<g><path style="opacity:1" fill="#f7f600" d="M 431.5,238.5 C 418.167,241.833 404.833,245.167 391.5,248.5C 391.211,244.894 391.544,241.394 392.5,238C 406.397,233.525 420.397,229.359 434.5,225.5C 435.167,225.833 435.833,226.167 436.5,226.5C 435.198,230.763 433.531,234.763 431.5,238.5 Z"/></g>
<g><path style="opacity:1" fill="#fafa00" d="M 124.5,315.5 C 102.915,320.901 81.582,325.901 60.5,330.5C 61.5017,326.33 63.0017,322.33 65,318.5C 96.3493,288.483 131.683,264.15 171,245.5C 183.025,247.537 194.192,245.204 204.5,238.5C 204.838,240.655 204.838,242.989 204.5,245.5C 221.347,238.716 238.347,232.216 255.5,226C 259.72,224.194 264.053,223.194 268.5,223C 227.959,241.934 188.626,262.934 150.5,286C 143.068,290.799 135.902,295.966 129,301.5C 126.13,305.688 124.63,310.355 124.5,315.5 Z"/></g>
<g><path style="opacity:1" fill="#f4c309" d="M 540.5,220.5 C 541.451,221.919 541.784,223.585 541.5,225.5C 541.958,228.394 541.291,230.894 539.5,233C 530.833,235.167 522.167,237.333 513.5,239.5C 512.287,239.253 511.62,238.586 511.5,237.5C 511.704,234.482 512.037,231.482 512.5,228.5C 513.416,228.982 514.416,229.315 515.5,229.5C 523.811,227.339 532.144,225.339 540.5,223.5C 540.5,222.5 540.5,221.5 540.5,220.5 Z"/></g>
<g><path style="opacity:1" fill="#f9dd05" d="M 481.5,228.5 C 481.5,231.833 481.5,235.167 481.5,238.5C 471.851,240.287 462.351,242.621 453,245.5C 452.502,242.183 452.335,238.85 452.5,235.5C 462.208,233.323 471.874,230.99 481.5,228.5 Z"/></g>
<g><path style="opacity:1" fill="#eca80d" d="M 541.5,225.5 C 542.636,230.681 542.636,236.015 541.5,241.5C 529.855,245.333 518.189,248 506.5,249.5C 508.186,245.424 509.853,241.424 511.5,237.5C 511.62,238.586 512.287,239.253 513.5,239.5C 522.167,237.333 530.833,235.167 539.5,233C 541.291,230.894 541.958,228.394 541.5,225.5 Z"/></g>
<g><path style="opacity:1" fill="#f8e104" d="M 431.5,238.5 C 431.5,239.5 431.5,240.5 431.5,241.5C 433.103,241.312 434.437,241.812 435.5,243C 434.257,244.154 433.257,245.488 432.5,247C 424.493,249.282 416.493,251.449 408.5,253.5C 408.5,256.167 408.5,258.833 408.5,261.5C 402.793,262.677 397.126,264.01 391.5,265.5C 391.5,259.833 391.5,254.167 391.5,248.5C 404.833,245.167 418.167,241.833 431.5,238.5 Z"/></g>
<g><path style="opacity:1" fill="#f0c009" d="M 481.5,226.5 C 482.49,232.31 482.823,238.31 482.5,244.5C 482.5,245.5 482.5,246.5 482.5,247.5C 471.719,249.44 461.386,252.44 451.5,256.5C 451.5,248.833 451.5,241.167 451.5,233.5C 452.338,233.842 452.672,234.508 452.5,235.5C 452.335,238.85 452.502,242.183 453,245.5C 462.351,242.621 471.851,240.287 481.5,238.5C 481.5,235.167 481.5,231.833 481.5,228.5C 481.5,227.833 481.5,227.167 481.5,226.5 Z"/></g>
<g><path style="opacity:1" fill="#f6f300" d="M 335.5,262.5 C 334.596,263.209 334.263,264.209 334.5,265.5C 327.459,267.01 320.459,268.677 313.5,270.5C 313.334,266.486 313.501,262.486 314,258.5C 318.968,258.184 322.635,255.851 325,251.5C 325.739,252.574 326.739,253.241 328,253.5C 329.963,252.375 331.796,251.041 333.5,249.5C 334.167,249.833 334.833,250.167 335.5,250.5C 336.367,254.465 336.367,258.465 335.5,262.5 Z"/></g>
<g><path style="opacity:1" fill="#ec9111" d="M 541.5,241.5 C 540.613,245.419 539.279,249.085 537.5,252.5C 523.274,256.307 508.94,259.64 494.5,262.5C 498.528,258.141 502.528,253.807 506.5,249.5C 518.189,248 529.855,245.333 541.5,241.5 Z"/></g>
<g><path style="opacity:1" fill="#f2ab0d" d="M 482.5,247.5 C 482.784,250.777 482.451,253.943 481.5,257C 471.482,259.505 461.482,262.005 451.5,264.5C 451.5,261.833 451.5,259.167 451.5,256.5C 461.386,252.44 471.719,249.44 482.5,247.5 Z"/></g>
<g><path style="opacity:1" fill="#ea8114" d="M 537.5,252.5 C 536.921,255.331 535.588,257.664 533.5,259.5C 505.798,266.009 478.131,272.675 450.5,279.5C 450.5,278.5 450.5,277.5 450.5,276.5C 450.19,273.287 450.523,270.287 451.5,267.5C 451.5,269.5 451.5,271.5 451.5,273.5C 462.167,271.167 472.833,268.833 483.5,266.5C 484.251,267.573 485.251,267.74 486.5,267C 489.059,265.223 491.726,263.723 494.5,262.5C 508.94,259.64 523.274,256.307 537.5,252.5 Z"/></g>
<g><path style="opacity:1" fill="#f9dd05" d="M 375.5,257.5 C 375.5,259.833 375.5,262.167 375.5,264.5C 367.803,266.341 360.136,268.341 352.5,270.5C 351.52,267.914 351.187,265.247 351.5,262.5C 359.5,260.833 367.5,259.167 375.5,257.5 Z"/></g>
<g><path style="opacity:1" fill="#e98f11" d="M 482.5,244.5 C 483.492,251.648 483.825,258.981 483.5,266.5C 472.833,268.833 462.167,271.167 451.5,273.5C 451.5,271.5 451.5,269.5 451.5,267.5C 451.5,266.5 451.5,265.5 451.5,264.5C 461.482,262.005 471.482,259.505 481.5,257C 482.451,253.943 482.784,250.777 482.5,247.5C 482.5,246.5 482.5,245.5 482.5,244.5 Z"/></g>
<g><path style="opacity:1" fill="#f0c408" d="M 351.5,261.5 C 351.5,261.833 351.5,262.167 351.5,262.5C 351.187,265.247 351.52,267.914 352.5,270.5C 360.136,268.341 367.803,266.341 375.5,264.5C 375.813,268.042 375.479,271.375 374.5,274.5C 366.551,276.112 358.718,278.112 351,280.5C 350.502,277.518 350.335,274.518 350.5,271.5C 350.187,267.958 350.521,264.625 351.5,261.5 Z"/></g>
<g><path style="opacity:1" fill="#e86c18" d="M 533.5,259.5 C 531.183,263.482 528.183,266.815 524.5,269.5C 524.389,270.117 524.056,270.617 523.5,271C 498.69,277.54 474.024,283.373 449.5,288.5C 449.183,284.298 449.517,280.298 450.5,276.5C 450.5,277.5 450.5,278.5 450.5,279.5C 478.131,272.675 505.798,266.009 533.5,259.5 Z"/></g>
<g><path style="opacity:1" fill="#f6f400" d="M 266.5,279.5 C 253.147,283.511 239.814,286.511 226.5,288.5C 238.388,279.223 251.721,272.556 266.5,268.5C 267.46,272.139 267.46,275.805 266.5,279.5 Z"/></g>
<g><path style="opacity:1" fill="#f0b50b" d="M 408.5,261.5 C 408.632,264.57 408.299,267.57 407.5,270.5C 402.427,272.435 397.094,273.768 391.5,274.5C 391.5,272.5 391.5,270.5 391.5,268.5C 391.5,267.5 391.5,266.5 391.5,265.5C 397.126,264.01 402.793,262.677 408.5,261.5 Z"/></g>
<g><path style="opacity:1" fill="#f8dc05" d="M 335.5,262.5 C 334.941,266.853 334.275,271.186 333.5,275.5C 326.833,276.833 320.167,278.167 313.5,279.5C 313.5,276.833 313.5,274.167 313.5,271.5C 313.5,271.167 313.5,270.833 313.5,270.5C 320.459,268.677 327.459,267.01 334.5,265.5C 334.263,264.209 334.596,263.209 335.5,262.5 Z"/></g>
<g><path style="opacity:1" fill="#ed9d0f" d="M 426.5,276.5 C 414.435,278.85 402.435,281.516 390.5,284.5C 390.179,278.974 390.512,273.64 391.5,268.5C 391.5,270.5 391.5,272.5 391.5,274.5C 397.094,273.768 402.427,272.435 407.5,270.5C 414.377,269.072 421.21,267.406 428,265.5C 428.5,265.833 429,266.167 429.5,266.5C 427.879,269.652 426.879,272.985 426.5,276.5 Z"/></g>
<g><path style="opacity:1" fill="#f7e902" d="M 301.5,279.5 C 294.608,282.355 287.441,284.689 280,286.5C 279.503,284.19 279.337,281.857 279.5,279.5C 278.308,274.203 279.974,270.203 284.5,267.5C 285.281,268.737 286.281,269.737 287.5,270.5C 289.808,267.025 292.308,263.692 295,260.5C 297.169,264.815 299.503,265.148 302,261.5C 302.409,267.51 302.242,273.51 301.5,279.5 Z"/></g>
<g><path style="opacity:1" fill="#e3521c" d="M 524.5,269.5 C 527.5,271.833 530.167,274.5 532.5,277.5C 500.393,286.277 468.06,294.611 435.5,302.5C 433.389,300.369 431.056,298.702 428.5,297.5C 427.494,296.604 427.494,295.938 428.5,295.5C 429.496,295.414 430.329,295.748 431,296.5C 435.928,294.308 441.095,292.808 446.5,292C 447.814,291.015 448.814,289.848 449.5,288.5C 474.024,283.373 498.69,277.54 523.5,271C 524.056,270.617 524.389,270.117 524.5,269.5 Z"/></g>
<g><path style="opacity:1" fill="#ec8613" d="M 426.5,276.5 C 425.895,279.127 425.395,281.793 425,284.5C 419.601,286.56 414.101,288.393 408.5,290C 407.594,291.699 407.261,293.533 407.5,295.5C 401.701,296.367 396.034,297.7 390.5,299.5C 390.5,297.167 390.5,294.833 390.5,292.5C 390.5,289.833 390.5,287.167 390.5,284.5C 402.435,281.516 414.435,278.85 426.5,276.5 Z"/></g>
<g><path style="opacity:1" fill="#f0af0c" d="M 350.5,271.5 C 350.335,274.518 350.502,277.518 351,280.5C 358.718,278.112 366.551,276.112 374.5,274.5C 374.5,276.833 374.5,279.167 374.5,281.5C 373.596,282.209 373.263,283.209 373.5,284.5C 365.5,286.167 357.5,287.833 349.5,289.5C 349.5,287.167 349.5,284.833 349.5,282.5C 349.185,278.629 349.518,274.962 350.5,271.5 Z"/></g>
<g><path style="opacity:1" fill="#f6c409" d="M 333.5,275.5 C 333.5,278.5 333.5,281.5 333.5,284.5C 327.136,286.008 320.803,287.674 314.5,289.5C 313.513,286.232 313.18,282.898 313.5,279.5C 320.167,278.167 326.833,276.833 333.5,275.5 Z"/></g>
<g><path style="opacity:1" fill="#f8e503" d="M 266.5,279.5 C 266.5,281.5 266.5,283.5 266.5,285.5C 263.759,285.707 261.426,286.707 259.5,288.5C 245.849,292.373 232.015,296.04 218,299.5C 217.235,299.43 216.735,299.097 216.5,298.5C 218.833,294.167 222.167,290.833 226.5,288.5C 239.814,286.511 253.147,283.511 266.5,279.5 Z"/></g>
<g><path style="opacity:1" fill="#f3cc07" d="M 279.5,279.5 C 279.337,281.857 279.503,284.19 280,286.5C 287.441,284.689 294.608,282.355 301.5,279.5C 301.037,282.482 300.704,285.482 300.5,288.5C 293.167,290.167 285.833,291.833 278.5,293.5C 278.5,292.167 278.5,290.833 278.5,289.5C 278.187,285.958 278.521,282.625 279.5,279.5 Z"/></g>
<g><path style="opacity:1" fill="#e0421e" d="M 532.5,277.5 C 533.488,278.795 534.488,280.128 535.5,281.5C 526.729,283.859 518.062,286.526 509.5,289.5C 508.185,288.524 506.852,287.524 505.5,286.5C 498.536,291.816 490.869,295.816 482.5,298.5C 468.444,300.845 454.444,304.179 440.5,308.5C 438.11,307.109 436.443,305.109 435.5,302.5C 468.06,294.611 500.393,286.277 532.5,277.5 Z"/></g>
<g><path style="opacity:1" fill="#e89510" d="M 374.5,281.5 C 373.949,284.807 373.616,288.14 373.5,291.5C 365.207,293.656 356.874,295.656 348.5,297.5C 348.5,296.833 348.5,296.167 348.5,295.5C 348.182,290.968 348.515,286.634 349.5,282.5C 349.5,284.833 349.5,287.167 349.5,289.5C 357.5,287.833 365.5,286.167 373.5,284.5C 373.263,283.209 373.596,282.209 374.5,281.5 Z"/></g>
<g><path style="opacity:1" fill="#ebac0c" d="M 313.5,271.5 C 313.5,274.167 313.5,276.833 313.5,279.5C 313.18,282.898 313.513,286.232 314.5,289.5C 320.803,287.674 327.136,286.008 333.5,284.5C 333.425,287.206 333.092,289.873 332.5,292.5C 314.202,296.991 295.868,301.325 277.5,305.5C 277.5,303.833 277.5,302.167 277.5,300.5C 277.185,296.629 277.518,292.962 278.5,289.5C 278.5,290.833 278.5,292.167 278.5,293.5C 285.833,291.833 293.167,290.167 300.5,288.5C 300.187,291.247 300.52,293.914 301.5,296.5C 305.09,294.868 308.757,293.534 312.5,292.5C 312.175,285.313 312.509,278.313 313.5,271.5 Z"/></g>
<g><path style="opacity:1" fill="#da1826" d="M 535.5,281.5 C 552.482,298.483 569.148,315.816 585.5,333.5C 582.559,334.773 580.226,336.773 578.5,339.5C 574.894,337.397 571.727,334.731 569,331.5C 568.5,332.5 568,333.5 567.5,334.5C 564.232,335.487 560.898,335.82 557.5,335.5C 557.528,337.582 556.861,339.416 555.5,341C 552.833,341.667 550.167,341.667 547.5,341C 535.773,323.111 523.107,305.945 509.5,289.5C 518.062,286.526 526.729,283.859 535.5,281.5 Z"/></g>
<g><path style="opacity:1" fill="#ec8114" d="M 373.5,291.5 C 373.5,294.833 373.5,298.167 373.5,301.5C 365.184,302.954 357.017,304.954 349,307.5C 348.502,304.183 348.335,300.85 348.5,297.5C 356.874,295.656 365.207,293.656 373.5,291.5 Z"/></g>
<g><path style="opacity:1" fill="#ee9810" d="M 332.5,292.5 C 332.5,295.5 332.5,298.5 332.5,301.5C 313.933,306.475 295.267,311.142 276.5,315.5C 276.5,314.5 276.5,313.5 276.5,312.5C 276.183,308.298 276.517,304.298 277.5,300.5C 277.5,302.167 277.5,303.833 277.5,305.5C 295.868,301.325 314.202,296.991 332.5,292.5 Z"/></g>
<g><path style="opacity:1" fill="#f4ce07" d="M 259.5,288.5 C 260.922,288.709 262.255,289.209 263.5,290C 254.677,294.578 246.01,299.411 237.5,304.5C 228.777,306.18 220.11,308.18 211.5,310.5C 210.287,310.253 209.62,309.586 209.5,308.5C 211.062,304.608 213.395,301.275 216.5,298.5C 216.735,299.097 217.235,299.43 218,299.5C 232.015,296.04 245.849,292.373 259.5,288.5 Z"/></g>
<g><path style="opacity:1" fill="#e75e1a" d="M 407.5,295.5 C 407.5,296.833 407.5,298.167 407.5,299.5C 406.527,301.948 406.194,304.615 406.5,307.5C 401.167,308.5 395.833,309.5 390.5,310.5C 390.5,306.833 390.5,303.167 390.5,299.5C 396.034,297.7 401.701,296.367 407.5,295.5 Z"/></g>
<g><path style="opacity:1" fill="#f3d605" d="M 197.5,311.5 C 189.803,313.341 182.136,315.341 174.5,317.5C 173.702,317.043 173.369,316.376 173.5,315.5C 177.098,310.726 180.931,306.06 185,301.5C 186.333,298.833 187.667,296.167 189,293.5C 190.327,296.131 191.66,298.798 193,301.5C 194.242,302.872 195.742,303.872 197.5,304.5C 198.575,306.811 198.575,309.144 197.5,311.5 Z"/></g>
<g><path style="opacity:1" fill="#e66319" d="M 348.5,295.5 C 348.5,296.167 348.5,296.833 348.5,297.5C 348.335,300.85 348.502,304.183 349,307.5C 357.017,304.954 365.184,302.954 373.5,301.5C 373.5,304.167 373.5,306.833 373.5,309.5C 372.539,311.265 372.205,313.265 372.5,315.5C 364.207,317.656 355.874,319.656 347.5,321.5C 347.174,312.651 347.507,303.984 348.5,295.5 Z"/></g>
<g><path style="opacity:1" fill="#eeb80a" d="M 237.5,304.5 C 234.833,307.5 232.167,310.5 229.5,313.5C 228.127,313.343 226.793,313.51 225.5,314C 226.167,314.333 226.833,314.667 227.5,315C 220.657,317.628 213.657,319.795 206.5,321.5C 205.614,320.675 205.281,319.675 205.5,318.5C 205.872,314.703 207.206,311.37 209.5,308.5C 209.62,309.586 210.287,310.253 211.5,310.5C 220.11,308.18 228.777,306.18 237.5,304.5 Z"/></g>
<g><path style="opacity:1" fill="#d7431d" d="M 390.5,292.5 C 390.5,294.833 390.5,297.167 390.5,299.5C 390.5,303.167 390.5,306.833 390.5,310.5C 395.833,309.5 401.167,308.5 406.5,307.5C 406.194,304.615 406.527,301.948 407.5,299.5C 407.5,301.833 407.5,304.167 407.5,306.5C 413.79,305.459 420.123,304.792 426.5,304.5C 426.5,306.167 426.5,307.833 426.5,309.5C 413.876,312.071 401.543,315.404 389.5,319.5C 389.173,310.318 389.507,301.318 390.5,292.5 Z"/></g>
<g><path style="opacity:1" fill="#e87e14" d="M 332.5,301.5 C 332.5,304.833 332.5,308.167 332.5,311.5C 313.459,316.01 294.459,320.677 275.5,325.5C 275.182,320.968 275.515,316.634 276.5,312.5C 276.5,313.5 276.5,314.5 276.5,315.5C 295.267,311.142 313.933,306.475 332.5,301.5 Z"/></g>
<g><path style="opacity:1" fill="#db1726" d="M 482.5,298.5 C 480.733,317.248 476.566,335.581 470,353.5C 468.172,355.081 466.172,356.415 464,357.5C 463.51,356.207 463.343,354.873 463.5,353.5C 452.414,355.973 441.747,359.64 431.5,364.5C 431.5,360.5 431.5,356.5 431.5,352.5C 437.258,340.654 441.591,328.321 444.5,315.5C 443.5,315.5 442.5,315.5 441.5,315.5C 441.702,313.05 441.369,310.717 440.5,308.5C 454.444,304.179 468.444,300.845 482.5,298.5 Z"/></g>
<g><path style="opacity:1" fill="#e86619" d="M 332.5,311.5 C 332.5,316.167 332.5,320.833 332.5,325.5C 325.833,327.167 319.167,328.833 312.5,330.5C 312.5,326.5 312.5,322.5 312.5,318.5C 307.649,319.229 302.982,320.562 298.5,322.5C 297.517,326.298 297.183,330.298 297.5,334.5C 290.167,336.167 282.833,337.833 275.5,339.5C 275.5,335.833 275.5,332.167 275.5,328.5C 275.5,327.5 275.5,326.5 275.5,325.5C 294.459,320.677 313.459,316.01 332.5,311.5 Z"/></g>
<g><path style="opacity:1" fill="#e88a12" d="M 269.5,316.5 C 269.5,318.5 269.5,320.5 269.5,322.5C 257.5,325.167 245.5,327.833 233.5,330.5C 233.047,329.542 232.381,328.708 231.5,328C 243.674,322.217 256.007,316.717 268.5,311.5C 269.452,313.045 269.785,314.712 269.5,316.5 Z"/></g>
<g><path style="opacity:1" fill="#f0b80a" d="M 197.5,311.5 C 196.197,315.382 195.53,319.382 195.5,323.5C 187.678,326.122 179.678,328.122 171.5,329.5C 171.5,328.5 171.5,327.5 171.5,326.5C 171.43,322.575 172.097,318.909 173.5,315.5C 173.369,316.376 173.702,317.043 174.5,317.5C 182.136,315.341 189.803,313.341 197.5,311.5 Z"/></g>
<g><path style="opacity:1" fill="#f9e204" d="M 124.5,315.5 C 123.781,317.764 123.448,320.097 123.5,322.5C 122.814,323.848 121.814,325.015 120.5,326C 112.118,328.012 103.785,330.179 95.5,332.5C 94.8333,331.5 94.1667,330.5 93.5,329.5C 92.8933,329.624 92.56,329.957 92.5,330.5C 89.8333,332.833 87.1667,335.167 84.5,337.5C 74.8107,339.672 65.144,342.006 55.5,344.5C 54.5836,344.457 53.9169,344.124 53.5,343.5C 55.5951,338.973 57.9284,334.639 60.5,330.5C 81.582,325.901 102.915,320.901 124.5,315.5 Z"/></g>
<g><path style="opacity:1" fill="#ed9e0f" d="M 229.5,313.5 C 226.997,317.507 225.33,321.84 224.5,326.5C 217.459,328.01 210.459,329.677 203.5,331.5C 203.5,330.167 203.5,328.833 203.5,327.5C 203.215,324.171 203.882,321.171 205.5,318.5C 205.281,319.675 205.614,320.675 206.5,321.5C 213.657,319.795 220.657,317.628 227.5,315C 226.833,314.667 226.167,314.333 225.5,314C 226.793,313.51 228.127,313.343 229.5,313.5 Z"/></g>
<g><path style="opacity:1" fill="#db1f25" d="M 426.5,304.5 C 427.493,313.318 427.827,322.318 427.5,331.5C 414.834,334.667 402.334,338.334 390,342.5C 389.5,334.841 389.334,327.174 389.5,319.5C 401.543,315.404 413.876,312.071 426.5,309.5C 426.5,307.833 426.5,306.167 426.5,304.5 Z"/></g>
<g><path style="opacity:1" fill="#e87715" d="M 269.5,316.5 C 270.808,320.019 270.808,323.685 269.5,327.5C 266.837,328.476 264.504,329.81 262.5,331.5C 261.733,332.172 261.066,333.005 260.5,334C 254.482,335.505 248.482,337.005 242.5,338.5C 241.048,337.698 239.382,337.198 237.5,337C 235.942,334.948 234.608,332.781 233.5,330.5C 245.5,327.833 257.5,325.167 269.5,322.5C 269.5,320.5 269.5,318.5 269.5,316.5 Z"/></g>
<g><path style="opacity:1" fill="#e23d20" d="M 372.5,315.5 C 372.797,319.767 372.464,323.934 371.5,328C 363.556,330.153 355.556,331.986 347.5,333.5C 347.5,329.5 347.5,325.5 347.5,321.5C 355.874,319.656 364.207,317.656 372.5,315.5 Z"/></g>
<g><path style="opacity:0.015" fill="#000000" d="M 608.5,329.5 C 609.83,332.44 609.663,335.44 608,338.5C 607.505,335.469 607.671,332.469 608.5,329.5 Z"/></g>
<g><path style="opacity:1" fill="#f3c608" d="M 123.5,322.5 C 122.978,327.533 122.311,332.533 121.5,337.5C 111.874,339.99 102.208,342.323 92.5,344.5C 92.5,342.5 92.5,340.5 92.5,338.5C 92.8051,335.586 92.8051,332.919 92.5,330.5C 92.56,329.957 92.8933,329.624 93.5,329.5C 94.1667,330.5 94.8333,331.5 95.5,332.5C 103.785,330.179 112.118,328.012 120.5,326C 121.814,325.015 122.814,323.848 123.5,322.5 Z"/></g>
<g><path style="opacity:1" fill="#ed8514" d="M 224.5,326.5 C 224.5,329.833 224.5,333.167 224.5,336.5C 217.762,337.851 211.096,339.518 204.5,341.5C 203.513,338.232 203.18,334.898 203.5,331.5C 210.459,329.677 217.459,328.01 224.5,326.5 Z"/></g>
<g><path style="opacity:1" fill="#f0ae0c" d="M 154.5,335.5 C 154.389,336.117 154.056,336.617 153.5,337C 132.815,342.171 112.148,347.338 91.5,352.5C 91.5,351.167 91.5,349.833 91.5,348.5C 91.1872,344.958 91.5206,341.625 92.5,338.5C 92.5,340.5 92.5,342.5 92.5,344.5C 102.208,342.323 111.874,339.99 121.5,337.5C 121.34,339.199 121.506,340.866 122,342.5C 134.288,334.112 147.121,326.945 160.5,321C 158.151,324.677 155.818,328.344 153.5,332C 153.989,333.138 154.322,334.305 154.5,335.5 Z"/></g>
<g><path style="opacity:1" fill="#ea9710" d="M 195.5,323.5 C 195.116,328.01 194.449,332.343 193.5,336.5C 185.803,338.341 178.136,340.341 170.5,342.5C 169.702,342.043 169.369,341.376 169.5,340.5C 169.362,335.586 170.028,330.919 171.5,326.5C 171.5,327.5 171.5,328.5 171.5,329.5C 179.678,328.122 187.678,326.122 195.5,323.5 Z"/></g>
<g><path style="opacity:1" fill="#d51825" d="M 373.5,309.5 C 373.231,326.683 373.564,343.85 374.5,361C 374.167,362.5 373.833,364 373.5,365.5C 372.914,365.291 372.414,364.957 372,364.5C 371.667,367.167 371.333,369.833 371,372.5C 368.333,367.167 365.667,361.833 363,356.5C 361.667,358.5 360.333,360.5 359,362.5C 356.833,358.167 354.667,353.833 352.5,349.5C 351.349,348.269 350.183,348.269 349,349.5C 347.905,344.22 347.405,338.887 347.5,333.5C 355.556,331.986 363.556,330.153 371.5,328C 372.464,323.934 372.797,319.767 372.5,315.5C 372.205,313.265 372.539,311.265 373.5,309.5 Z"/></g>
<g><path style="opacity:1" fill="#e03022" d="M 332.5,325.5 C 332.5,332.833 332.5,340.167 332.5,347.5C 325.833,349.167 319.167,350.833 312.5,352.5C 312.5,345.167 312.5,337.833 312.5,330.5C 319.167,328.833 325.833,327.167 332.5,325.5 Z"/></g>
<g><path style="opacity:1" fill="#ef9810" d="M 154.5,335.5 C 156.672,338.903 157.005,342.57 155.5,346.5C 134.392,351.36 113.392,356.694 92.5,362.5C 91.513,359.232 91.1796,355.898 91.5,352.5C 112.148,347.338 132.815,342.171 153.5,337C 154.056,336.617 154.389,336.117 154.5,335.5 Z"/></g>
<g><path style="opacity:1" fill="#e97816" d="M 193.5,336.5 C 192.947,341.482 192.613,346.482 192.5,351.5C 184.5,353.167 176.5,354.833 168.5,356.5C 168.5,354.167 168.5,351.833 168.5,349.5C 168.19,346.287 168.523,343.287 169.5,340.5C 169.369,341.376 169.702,342.043 170.5,342.5C 178.136,340.341 185.803,338.341 193.5,336.5 Z"/></g>
<g><path style="opacity:1" fill="#e35c1a" d="M 203.5,327.5 C 203.5,328.833 203.5,330.167 203.5,331.5C 203.18,334.898 203.513,338.232 204.5,341.5C 211.096,339.518 217.762,337.851 224.5,336.5C 227.414,345.061 233.414,348.728 242.5,347.5C 242.5,344.5 242.5,341.5 242.5,338.5C 248.482,337.005 254.482,335.505 260.5,334C 261.066,333.005 261.733,332.172 262.5,331.5C 262.663,336.547 262.329,341.547 261.5,346.5C 243.907,350.232 226.573,354.565 209.5,359.5C 206.919,356.68 205.086,353.346 204,349.5C 202.462,342.033 202.295,334.7 203.5,327.5 Z M 234.5,338.5 C 234.687,340.564 235.187,342.564 236,344.5C 237.011,345.337 238.178,345.67 239.5,345.5C 239.5,343.833 239.5,342.167 239.5,340.5C 237.486,340.608 235.82,339.942 234.5,338.5 Z"/></g>
<g><path style="opacity:1" fill="#df3920" d="M 275.5,328.5 C 275.5,332.167 275.5,335.833 275.5,339.5C 282.833,337.833 290.167,336.167 297.5,334.5C 297.803,339.43 297.469,344.263 296.5,349C 289.585,350.979 282.585,352.479 275.5,353.5C 275.784,355.415 275.451,357.081 274.5,358.5C 274.173,348.319 274.506,338.319 275.5,328.5 Z"/></g>
<g><path style="opacity:1" fill="#d71226" d="M 332.5,347.5 C 333.549,356.473 333.716,365.473 333,374.5C 328.965,370.8 325.298,366.8 322,362.5C 321.505,364.473 321.338,366.473 321.5,368.5C 318.325,368.497 315.492,367.497 313,365.5C 312.501,361.179 312.334,356.846 312.5,352.5C 319.167,350.833 325.833,349.167 332.5,347.5 Z"/></g>
<g><path style="opacity:1" fill="#f1bc0a" d="M 84.5,337.5 C 78.8333,343.5 73.1667,349.5 67.5,355.5C 61.7821,357.39 55.9488,359.056 50,360.5C 49.5,360.167 49,359.833 48.5,359.5C 49.3094,357.929 49.6427,356.262 49.5,354.5C 50.0653,350.463 51.3987,346.797 53.5,343.5C 53.9169,344.124 54.5836,344.457 55.5,344.5C 65.144,342.006 74.8107,339.672 84.5,337.5 Z"/></g>
<g><path style="opacity:1" fill="#e98413" d="M 155.5,346.5 C 155.586,347.496 155.252,348.329 154.5,349C 149.28,352.393 143.947,355.56 138.5,358.5C 121.556,361.944 104.723,365.944 88,370.5C 87.2352,370.43 86.7352,370.097 86.5,369.5C 87.4577,368.038 88.6244,366.705 90,365.5C 90.1728,359.652 90.6728,353.985 91.5,348.5C 91.5,349.833 91.5,351.167 91.5,352.5C 91.1796,355.898 91.513,359.232 92.5,362.5C 113.392,356.694 134.392,351.36 155.5,346.5 Z"/></g>
<g><path style="opacity:1" fill="#e13920" d="M 261.5,346.5 C 261.5,350.167 261.5,353.833 261.5,357.5C 247.464,361.926 233.131,364.926 218.5,366.5C 214.637,365.306 211.637,362.973 209.5,359.5C 226.573,354.565 243.907,350.232 261.5,346.5 Z"/></g>
<g><path style="opacity:1" fill="#6d0b12" d="M 431.5,352.5 C 431.5,356.5 431.5,360.5 431.5,364.5C 430.833,365.167 430.167,365.833 429.5,366.5C 429.817,362.298 429.483,358.298 428.5,354.5C 428.5,354.167 428.5,353.833 428.5,353.5C 429.391,352.89 430.391,352.557 431.5,352.5 Z"/></g>
<g><path style="opacity:0.883" fill="#eb1b23" d="M 428.5,354.5 C 429.483,358.298 429.817,362.298 429.5,366.5C 428.833,366.5 428.5,366.833 428.5,367.5C 425.813,367.664 423.146,367.497 420.5,367C 423.424,362.927 426.091,358.761 428.5,354.5 Z"/></g>
<g><path style="opacity:1" fill="#e69c0e" d="M 49.5,354.5 C 49.6427,356.262 49.3094,357.929 48.5,359.5C 49,359.833 49.5,360.167 50,360.5C 55.9488,359.056 61.7821,357.39 67.5,355.5C 61.5014,362.335 55.668,369.335 50,376.5C 49.5172,375.552 49.3505,374.552 49.5,373.5C 48.325,373.719 47.325,373.386 46.5,372.5C 47.7061,369.921 49.0394,367.421 50.5,365C 49.2068,364.51 47.8734,364.343 46.5,364.5C 46.7234,360.838 47.7234,357.505 49.5,354.5 Z"/></g>
<g><path style="opacity:1" fill="#d01824" d="M 298.5,322.5 C 298.5,339.833 298.5,357.167 298.5,374.5C 296.774,374.185 295.107,374.019 293.5,374C 292.257,376.49 291.09,378.99 290,381.5C 287.757,376.015 285.257,370.682 282.5,365.5C 281.52,366.981 280.353,368.315 279,369.5C 277.89,367.963 276.39,367.297 274.5,367.5C 274.5,364.5 274.5,361.5 274.5,358.5C 275.451,357.081 275.784,355.415 275.5,353.5C 282.585,352.479 289.585,350.979 296.5,349C 297.469,344.263 297.803,339.43 297.5,334.5C 297.183,330.298 297.517,326.298 298.5,322.5 Z"/></g>
<g><path style="opacity:1" fill="#e4531c" d="M 168.5,349.5 C 168.5,351.833 168.5,354.167 168.5,356.5C 176.5,354.833 184.5,353.167 192.5,351.5C 192.779,356.595 192.445,361.595 191.5,366.5C 183.437,367.849 175.437,369.516 167.5,371.5C 167.5,367.833 167.5,364.167 167.5,360.5C 167.185,356.629 167.518,352.962 168.5,349.5 Z"/></g>
<g><path style="opacity:1" fill="#e87416" d="M 138.5,358.5 C 135.204,360.821 131.871,363.154 128.5,365.5C 113.152,368.462 97.9854,372.129 83,376.5C 82.6012,376.272 82.4346,375.938 82.5,375.5C 82.8449,372.802 84.1782,370.802 86.5,369.5C 86.7352,370.097 87.2352,370.43 88,370.5C 104.723,365.944 121.556,361.944 138.5,358.5 Z"/></g>
<g><path style="opacity:1" fill="#d81826" d="M 261.5,357.5 C 261.847,366.916 261.18,376.249 259.5,385.5C 257.533,384.318 256.2,384.985 255.5,387.5C 253.5,386.167 251.5,384.833 249.5,383.5C 246.677,386.685 243.677,387.019 240.5,384.5C 239.833,379.167 239.167,373.833 238.5,368.5C 233.889,369.61 229.222,369.777 224.5,369C 222.148,368.76 220.148,367.927 218.5,366.5C 233.131,364.926 247.464,361.926 261.5,357.5 Z"/></g>
<g><path style="opacity:1" fill="#e6601a" d="M 128.5,365.5 C 124.204,368.109 121.537,371.775 120.5,376.5C 107.534,379.658 94.5345,382.658 81.5,385.5C 80.0222,385.762 78.6888,385.429 77.5,384.5C 78.9409,381.276 80.6076,378.276 82.5,375.5C 82.4346,375.938 82.6012,376.272 83,376.5C 97.9854,372.129 113.152,368.462 128.5,365.5 Z"/></g>
<g><path style="opacity:1" fill="#db1c26" d="M 167.5,360.5 C 167.5,364.167 167.5,367.833 167.5,371.5C 175.437,369.516 183.437,367.849 191.5,366.5C 191.5,382.833 191.5,399.167 191.5,415.5C 189.011,415.702 186.677,415.202 184.5,414C 182.108,411.272 180.108,408.272 178.5,405C 177.101,404.405 175.768,404.572 174.5,405.5C 173.126,404.289 171.626,403.289 170,402.5C 169.228,402.645 168.561,402.978 168,403.5C 166.312,389.028 166.146,374.695 167.5,360.5 Z"/></g>
<g><path style="opacity:1" fill="#e0461e" d="M 120.5,376.5 C 120.5,379.833 120.5,383.167 120.5,386.5C 110.443,388.514 100.443,390.847 90.5,393.5C 89.2867,393.747 88.62,394.414 88.5,395.5C 87.0222,395.762 85.6888,395.429 84.5,394.5C 85.77,392.452 86.1033,390.452 85.5,388.5C 82.3081,391.118 80.9748,390.118 81.5,385.5C 94.5345,382.658 107.534,379.658 120.5,376.5 Z"/></g>
<g><path style="opacity:1" fill="#da1a26" d="M 120.5,386.5 C 120.932,400.175 121.598,413.842 122.5,427.5C 122.211,440.631 117.378,442.631 108,433.5C 107.167,434.5 106.333,435.5 105.5,436.5C 100.945,434.927 96.4447,433.26 92,431.5C 89.6213,419.623 88.4547,407.623 88.5,395.5C 88.62,394.414 89.2867,393.747 90.5,393.5C 100.443,390.847 110.443,388.514 120.5,386.5 Z"/></g>
</svg>
